<svg xmlns="http://www.w3.org/2000/svg" width="165" height="90" viewBox="0 0 165 90">
    <g fill="#F45C00" fill-rule="evenodd">
        <path d="M122.412 25.043l-8.59-.043c-.548 0-.822.327-.822.872v38.257c0 .598.274.871.822.871h26.363c.45 0 .815-.366.815-.817v-7.005a.816.816 0 0 0-.815-.817H123.23V25.919c0-.548-.273-.876-.819-.876"/>
        <path d="M164.146 0H91.837c-.391 0-.71.32-.71.713V40.12H74.951V25.803c0-.539-.263-.863-.788-.863l-8.131-.043c-.525 0-.787.324-.787.864v37.84c0 .647.262.917.787.917l8.09.029c.552 0 .829-.27.829-.917V48.795h16.176V64.133c0 .655.277.927.83.927l8.585.029c.554 0 .83-.273.83-.927V10.301h53.922v69.94H10.245V9.759H74.33c.343 0 .621-.28.621-.624V.624a.622.622 0 0 0-.62-.624H.853A.856.856 0 0 0 0 .859V89.14c0 .475.382.859.854.859h163.292a.856.856 0 0 0 .854-.859V.86a.856.856 0 0 0-.854-.859"/>
        <path d="M53.321 33.293c.375 0 .679-.31.679-.69V24.69a.685.685 0 0 0-.679-.691H25.678a.685.685 0 0 0-.678.691v39.618c0 .382.304.691.678.691h27.643a.685.685 0 0 0 .679-.691v-7.911a.685.685 0 0 0-.679-.691H34.667V33.293H53.32z"/>
    </g>
</svg>
